<?xml version="1.0" standalone="no"?>
<!DOCTYPE svg PUBLIC "-//W3C//DTD SVG 20010904//EN"
 "http://www.w3.org/TR/2001/REC-SVG-20010904/DTD/svg10.dtd">
<svg version="1.0" xmlns="http://www.w3.org/2000/svg"
 width="451.000000pt" height="451.000000pt" viewBox="0 0 451.000000 451.000000"
 preserveAspectRatio="xMidYMid meet">
<metadata>
Created by potrace 1.11, written by Peter Selinger 2001-2013
</metadata>
<g transform="translate(0.000000,451.000000) scale(0.100000,-0.100000)"
fill="#000000" stroke="none">
<path d="M17 4503 c-4 -3 -7 -1018 -7 -2255 l0 -2248 2248 2 2247 3 3 2253 2
2252 -2243 0 c-1234 0 -2247 -3 -2250 -7z m2370 -10 l-607 -3 -37 -57 c-48
-75 -114 -216 -152 -326 -30 -85 -74 -260 -156 -612 -92 -393 -206 -629 -403
-837 -188 -197 -414 -340 -742 -468 -74 -30 -139 -56 -143 -60 -4 -4 27 -17
70 -30 210 -61 471 -178 618 -276 200 -134 336 -284 439 -484 71 -138 114
-263 191 -560 100 -384 151 -519 259 -685 l56 -85 -880 0 -880 0 0 2245 0
2245 1488 -2 c818 -2 1214 -4 879 -5z m2113 -2233 l0 -2240 -479 0 -478 0 -31
68 c-38 83 -57 137 -127 363 -65 210 -108 315 -169 412 -129 207 -355 355
-674 441 -86 23 -86 24 -47 30 197 30 303 70 422 160 191 145 345 417 449 794
19 69 34 133 33 141 0 9 -16 -40 -34 -109 -44 -163 -86 -283 -142 -400 -44
-93 -45 -95 -58 -69 -8 14 -54 149 -104 300 -130 392 -224 570 -372 703 -142
128 -345 220 -538 243 -60 7 -52 17 24 28 64 9 197 51 255 80 77 39 160 107
207 170 97 129 134 238 193 561 48 264 77 372 132 476 l40 78 344 0 344 0 -11
-26 c-5 -15 -8 -29 -5 -31 2 -2 9 12 16 31 l12 36 399 0 399 0 0 -2240z"/>
<path d="M3641 4333 c-11 -48 -22 -113 -25 -143 -4 -36 1 -22 13 40 10 52 24
115 30 139 7 23 10 45 8 48 -3 2 -14 -35 -26 -84z"/>
<path d="M3595 4060 c-4 -39 -5 -73 -2 -76 2 -3 8 27 11 67 4 39 5 73 3 76 -3
2 -8 -28 -12 -67z"/>
<path d="M3575 3880 c-4 -50 -5 -93 -2 -96 2 -3 8 36 12 86 3 51 5 94 2 96 -3
3 -8 -36 -12 -86z"/>
<path d="M3563 3720 c0 -30 2 -43 4 -27 2 15 2 39 0 55 -2 15 -4 2 -4 -28z"/>
<path d="M3553 3610 c0 -30 2 -43 4 -27 2 15 2 39 0 55 -2 15 -4 2 -4 -28z"/>
<path d="M3543 3500 c0 -30 2 -43 4 -27 2 15 2 39 0 55 -2 15 -4 2 -4 -28z"/>
<path d="M3525 3345 c-4 -53 -5 -99 -2 -101 2 -3 8 38 12 91 4 53 5 99 2 101
-2 3 -8 -38 -12 -91z"/>
<path d="M3513 3190 c0 -25 2 -35 4 -22 2 12 2 32 0 45 -2 12 -4 2 -4 -23z"/>
<path d="M3503 3100 c0 -25 2 -35 4 -22 2 12 2 32 0 45 -2 12 -4 2 -4 -23z"/>
<path d="M3493 3015 c0 -22 2 -30 4 -17 2 12 2 30 0 40 -3 9 -5 -1 -4 -23z"/>
<path d="M3471 2874 c-7 -53 -11 -98 -8 -100 2 -3 10 38 17 91 7 53 11 98 8
100 -2 3 -10 -38 -17 -91z"/>
<path d="M3446 2709 c-4 -28 -5 -53 -3 -56 3 -2 8 19 12 47 4 28 5 53 2 56 -2
3 -7 -19 -11 -47z"/>
<path d="M3416 2549 c-9 -50 -15 -93 -13 -95 2 -3 12 36 22 86 10 50 16 93 13
95 -2 3 -12 -36 -22 -86z"/>
</g>
</svg>
